<svg width="19" height="20" viewBox="0 0 19 20" fill="none" xmlns="http://www.w3.org/2000/svg">
<path d="M16.3249 7.46777C16.3249 7.46777 15.7819 14.2028 15.4669 17.0398C15.3169 18.3948 14.4799 19.1888 13.1089 19.2138C10.4999 19.2608 7.8879 19.2638 5.2799 19.2088C3.9609 19.1818 3.1379 18.3778 2.9909 17.0468C2.6739 14.1848 2.1339 7.46777 2.1339 7.46777" stroke="#FA4A0C" stroke-width="1.5" stroke-linecap="round" stroke-linejoin="round"/>
<path d="M17.7082 4.23926H0.750198" stroke="#FA4A0C" stroke-width="1.5" stroke-linecap="round" stroke-linejoin="round"/>
<path d="M14.4406 4.23949C13.6556 4.23949 12.9796 3.68449 12.8256 2.91549L12.5826 1.69949C12.4326 1.13849 11.9246 0.750488 11.3456 0.750488H7.11259C6.53359 0.750488 6.02559 1.13849 5.87559 1.69949L5.63259 2.91549C5.47859 3.68449 4.80259 4.23949 4.01759 4.23949" stroke="#FA4A0C" stroke-width="1.5" stroke-linecap="round" stroke-linejoin="round"/>
</svg>
