<svg width="24" height="24" viewBox="0 0 24 24" fill="none" xmlns="http://www.w3.org/2000/svg">
<path fill-rule="evenodd" clip-rule="evenodd" d="M7.48662 21.5H15.8345C18.9008 21.5 21.2532 20.3925 20.585 15.9348L19.807 9.89363C19.3951 7.66937 17.9763 6.81812 16.7315 6.81812H6.55299C5.28983 6.81812 3.95344 7.73345 3.47747 9.89363L2.69944 15.9348C2.13193 19.8891 4.42026 21.5 7.48662 21.5Z" stroke="#FFFFFF" stroke-width="1.5" stroke-linecap="round" stroke-linejoin="round"/>
<path d="M7.34975 6.59848C7.34975 4.21241 9.28404 2.27812 11.6701 2.27812V2.27812C12.8191 2.27325 13.9227 2.72628 14.7369 3.53703C15.5511 4.34778 16.0088 5.44947 16.0088 6.59848V6.59848" stroke="#FFFFFF" stroke-width="1.5" stroke-linecap="round" stroke-linejoin="round"/>
<path d="M8.70402 11.102H8.74979" stroke="#FFFFFF" stroke-width="1.5" stroke-linecap="round" stroke-linejoin="round"/>
<path d="M14.5351 11.102H14.5808" stroke="#FFFFFF" stroke-width="1.5" stroke-linecap="round" stroke-linejoin="round"/>
</svg>
