<svg width="20" height="22" viewBox="0 0 20 22" fill="none" xmlns="http://www.w3.org/2000/svg">
<path fill-rule="evenodd" clip-rule="evenodd" d="M1.50083 12.7871V12.5681C1.53295 11.9202 1.7406 11.2925 2.10236 10.7496C2.7045 10.0975 3.1167 9.29831 3.29571 8.43598C3.29571 7.7695 3.29571 7.0935 3.35393 6.42703C3.65469 3.21842 6.82728 1 9.96106 1H10.0387C13.1725 1 16.345 3.21842 16.6555 6.42703C16.7137 7.0935 16.6555 7.7695 16.704 8.43598C16.8854 9.3003 17.2972 10.1019 17.8974 10.7591C18.2618 11.2972 18.4698 11.9227 18.4989 12.5681V12.7776C18.5206 13.648 18.2208 14.4968 17.6548 15.1674C16.907 15.9515 15.8921 16.4393 14.8024 16.5384C11.607 16.8812 8.38303 16.8812 5.18762 16.5384C4.09914 16.435 3.08576 15.9479 2.33521 15.1674C1.778 14.4963 1.48224 13.6526 1.50083 12.7871Z" stroke="#200E32" stroke-width="1.5" stroke-linecap="round" stroke-linejoin="round"/>
<path d="M7.55493 19.8516C8.05421 20.4782 8.78739 20.8838 9.59222 20.9785C10.3971 21.0732 11.2072 20.8493 11.8433 20.3562C12.0389 20.2103 12.2149 20.0408 12.3672 19.8516" stroke="#200E32" stroke-width="1.5" stroke-linecap="round" stroke-linejoin="round"/>
</svg>
