<svg width="27" height="18" viewBox="0 0 27 18" fill="none" xmlns="http://www.w3.org/2000/svg">
<path d="M1.5 18C1.075 18 0.719 17.856 0.432 17.568C0.144 17.281 0 16.925 0 16.5C0 16.075 0.144 15.719 0.432 15.432C0.719 15.144 1.075 15 1.5 15H25.5C25.925 15 26.281 15.144 26.568 15.432C26.856 15.719 27 16.075 27 16.5C27 16.925 26.856 17.281 26.568 17.568C26.281 17.856 25.925 18 25.5 18H1.5ZM1.5 10.5C1.075 10.5 0.719 10.356 0.432 10.068C0.144 9.781 0 9.425 0 9C0 8.575 0.144 8.2185 0.432 7.9305C0.719 7.6435 1.075 7.5 1.5 7.5H25.5C25.925 7.5 26.281 7.6435 26.568 7.9305C26.856 8.2185 27 8.575 27 9C27 9.425 26.856 9.781 26.568 10.068C26.281 10.356 25.925 10.5 25.5 10.5H1.5ZM1.5 3C1.075 3 0.719 2.8565 0.432 2.5695C0.144 2.2815 0 1.925 0 1.5C0 1.075 0.144 0.7185 0.432 0.4305C0.719 0.1435 1.075 0 1.5 0H25.5C25.925 0 26.281 0.1435 26.568 0.4305C26.856 0.7185 27 1.075 27 1.5C27 1.925 26.856 2.2815 26.568 2.5695C26.281 2.8565 25.925 3 25.5 3H1.5Z" fill="white"/>
</svg>
